<svg width="756" height="756" xmlns="http://www.w3.org/2000/svg" t="1777013276971" class="icon" version="1.1" p-id="5414">
 <g>
  <title>Layer 1</title>
  <path d="m460.34667,617.49333c-20.48,0 -32.42667,-3.41333 -34.13334,-4.26666c-8.53333,-3.41334 -13.65333,-12.8 -10.24,-21.33334c3.41334,-8.53333 12.8,-13.65333 21.33334,-10.24c0,0 38.4,11.09334 112.64,-16.21333s104.10666,-78.50667 105.81333,-81.06667c4.26667,-7.68 12.8,-11.09333 21.33333,-7.68s12.8,12.8 9.38667,21.33334c0,0.85333 -33.28,65.70666 -124.58667,98.98666c-45.22666,16.21334 -78.50666,20.48 -101.54666,20.48zm-125.44,-401.06666s-11.94667,164.69333 -177.49334,180.90666c-166.4,16.21334 -157.01333,-180.90666 -157.01333,-180.90666s-5.97333,-69.12 157.01333,-79.36c162.98667,-10.24 177.49334,79.36 177.49334,79.36m420.69333,0s-11.94667,164.69333 -177.49333,180.90666c-165.54667,16.21334 -157.01334,-180.90666 -157.01334,-180.90666s-5.97333,-69.12 157.01334,-79.36c162.98666,-10.24 177.49333,79.36 177.49333,79.36" fill="#2c2c2c" p-id="5419" data-spm-anchor-id="a313x.search_index.0.i1.3e383a81UqPhxx" id="svg_5"/>
  <path d="m374.30667,238.61333c-58.88,0 -82.77334,-17.06666 -85.33334,-19.62666c-5.12,-4.26667 -6.82666,-11.94667 -2.56,-17.92c4.26667,-5.12 11.94667,-6.82667 17.92,-2.56c0,0 23.04,16.21333 81.06667,14.50666c58.02667,-1.70666 90.45333,-30.72 92.16,-31.57333c4.26667,-4.26667 11.94667,-5.12 17.06667,-0.85333c5.12,4.26666 5.97333,11.94666 1.70666,17.92c0,0 -39.25333,37.54666 -109.22666,40.10666l-12.8,0z" fill="#2c2c2c" p-id="5420" data-spm-anchor-id="a313x.search_index.0.i2.3e383a81UqPhxx" id="svg_6"/>
  <path d="m43.92,261.65333c-7.68,-0.85333 -12.8,-6.82666 -12.8,-13.65333c0,-1.70667 2.56,-43.52 26.45333,-67.41333c23.89334,-23.89334 54.61334,-23.04 55.46667,-23.04c6.82667,0 12.8,5.97333 11.94667,12.8c0,6.82666 -5.97334,11.94666 -12.8,11.94666c-0.85334,0 -21.33334,0 -37.54667,16.21334c-13.65333,13.65333 -18.77333,40.96 -19.62667,51.2c0.85334,6.82666 -4.26666,11.94666 -11.09333,11.94666zm422.4,-7.68c-0.85333,0 -2.56,0 -3.41333,-0.85333c-6.82667,-1.70667 -10.24,-8.53333 -8.53334,-15.36c0.85334,-1.70667 11.94667,-42.66667 40.10667,-60.58667c28.16,-17.92 58.02667,-11.94666 58.88,-11.09333c6.82667,1.70667 11.09333,8.53333 9.38667,15.36c-1.70667,6.82667 -8.53334,11.09333 -15.36,9.38667c0,0 -20.48,-4.26667 -40.10667,8.53333c-17.06667,11.09333 -27.30667,36.69333 -29.86667,46.08c-0.85333,5.12 -5.97333,8.53333 -11.09333,8.53333z" fill="#FFFFFF" p-id="5421" id="svg_7"/>
 </g>

</svg>